<svg width="500" height="500" viewBox="0 0 500 500" fill="none" xmlns="http://www.w3.org/2000/svg">
<path d="M364.207 268.626C345.243 249.392 315.346 177.643 314.447 160.643C313.358 138.428 319.851 120.037 348.809 106.66C365.29 98.9957 373.366 89.5191 382.126 79.2389C383.27 77.8962 384.426 76.5397 385.613 75.1718C396.251 63.2355 402.426 97.3896 404.908 126.662C407.685 158.74 404.81 200.772 397.88 228.451C392.847 248.553 379.151 279.342 375.497 278.661C374.703 278.514 369.676 274.016 364.207 268.626Z" fill="#2FDB4A"/>
<path d="M135.793 268.626C154.757 249.392 184.654 177.643 185.552 160.643C186.642 138.428 180.149 120.037 151.19 106.66C134.71 98.9957 126.634 89.5191 117.874 79.2389C116.73 77.8962 115.574 76.5397 114.387 75.1718C103.748 63.2355 97.5738 97.3896 95.0917 126.662C92.3145 158.74 95.1888 200.772 102.119 228.451C107.153 248.553 120.848 279.342 124.502 278.661C125.297 278.514 130.324 274.016 135.793 268.626Z" fill="#2FDB4A"/>
<path d="M420.116 407.013C419.338 409.383 417.977 412.263 416.034 415.651C414.091 419.038 408.842 423.611 400.291 429.37C392.127 434.791 382.215 437.5 370.553 437.5C359.279 437.5 349.366 434.791 340.815 429.37C332.651 423.611 327.209 418.022 324.488 412.602L256.266 237.297H243.734L175.512 412.602C172.79 418.022 167.348 423.611 159.185 429.37C150.633 434.791 140.721 437.5 129.447 437.5C117.785 437.5 107.872 434.791 99.7093 429.37C91.1573 423.611 85.9093 419.038 83.9657 415.651C82.022 412.263 80.6615 409.383 79.884 407.013C53.256 326.555 0 146.026 0 67.5814C10.4958 64.1938 19.6309 62.5 27.4054 62.5L76.5175 63.2017C65.6359 154.512 69.1491 299.871 118.787 322.099C147.963 330.798 173.055 258.175 205.411 164.525C216.255 133.138 227.915 99.3897 240.818 65.5488H259.181C272.084 99.3872 283.743 133.133 294.586 164.518L294.588 164.523L294.589 164.525C326.945 258.175 352.036 330.798 381.212 322.099C430.851 299.871 434.364 154.512 423.482 63.2017L472.594 62.5C480.369 62.5 489.504 64.1938 500 67.5814C500 146.026 446.744 326.555 420.116 407.013Z" fill="#2FDB4A"/>
</svg>
