<svg width="2616" height="420" viewBox="0 0 2616 420" fill="none" xmlns="http://www.w3.org/2000/svg">
<rect width="2616" height="420" fill="#1E1E1E"/>
<g clip-path="url(#clip0_0_1)">
<path d="M2616 269.71C2616 293.695 2612.31 315.164 2604.91 334.121C2597.51 352.689 2587 368.356 2573.37 381.122C2560.14 393.888 2544.17 403.56 2525.48 410.136C2506.8 416.712 2485.97 420 2463 420C2440.03 420 2419.2 416.519 2400.52 409.556C2381.83 402.592 2365.67 392.728 2352.05 379.961C2338.81 366.809 2328.49 350.949 2321.09 332.379C2313.69 313.81 2310 292.921 2310 269.71C2310 246.886 2313.69 226.19 2321.09 207.621C2328.49 189.052 2338.81 173.386 2352.05 160.619C2365.67 147.466 2381.83 137.408 2400.52 130.445C2419.2 123.482 2440.03 120 2463 120C2485.97 120 2506.8 123.676 2525.48 131.026C2544.17 137.989 2560.14 148.047 2573.37 161.2C2587 173.966 2597.51 189.633 2604.91 208.201C2612.31 226.77 2616 247.273 2616 269.71ZM2411.61 269.71C2411.61 293.308 2416.09 311.489 2425.05 324.256C2434.39 336.634 2447.23 342.824 2463.58 342.824C2479.94 342.824 2492.39 336.442 2500.95 323.675C2509.92 310.91 2514.39 292.921 2514.39 269.71C2514.39 246.5 2509.92 228.704 2500.95 216.326C2492 203.559 2479.36 197.177 2463 197.177C2446.65 197.177 2434 203.559 2425.05 216.326C2416.09 228.704 2411.61 246.5 2411.61 269.71Z" fill="#2FDB4A"/>
<path d="M2262 414.754C2258.11 415.92 2251.89 417.086 2243.32 418.251C2235.15 419.418 2226.59 420 2217.64 420C2209.09 420 2201.3 419.418 2194.3 418.251C2187.68 417.086 2182.04 414.754 2177.37 411.256C2172.7 407.758 2169 403.094 2166.28 397.265C2163.94 391.046 2162.78 383.079 2162.78 373.364V243.947C2162.78 228.013 2158.69 216.936 2150.52 210.718C2142.73 204.111 2133 200.808 2121.34 200.808C2113.56 200.808 2106.16 201.779 2099.16 203.722C2092.15 205.665 2086.51 207.997 2082.23 210.718V414.754C2078.34 415.92 2072.11 417.086 2063.55 418.251C2055.38 419.418 2046.81 420 2037.86 420C2029.31 420 2021.53 419.418 2014.52 418.251C2007.91 417.086 2002.26 414.754 1997.59 411.256C1992.92 407.758 1989.23 403.094 1986.5 397.265C1984.17 391.046 1983 383.079 1983 373.364V35.2467C1987.28 34.4694 1993.51 33.4977 2001.68 32.3318C2010.24 30.7773 2018.8 30 2027.37 30C2035.92 30 2043.51 30.583 2050.12 31.7489C2057.13 32.9148 2062.96 35.2467 2067.63 38.7444C2072.3 42.2422 2075.81 47.1002 2078.14 53.3184C2080.87 59.148 2082.23 66.9208 2082.23 76.6369V133.767C2087.29 131.824 2094.88 129.687 2104.99 127.355C2115.5 124.633 2126.97 123.273 2139.43 123.273C2177.95 123.273 2207.92 132.99 2229.31 152.422C2251.11 171.465 2262 200.03 2262 238.117V414.754Z" fill="#2FDB4A"/>
<path d="M1859.14 197.907C1849.42 197.907 1840.08 199.457 1831.13 202.559C1822.57 205.659 1814.98 210.31 1808.38 216.512C1802.15 222.326 1797.09 229.69 1793.2 238.604C1789.31 247.519 1787.36 257.985 1787.36 270C1787.36 294.031 1794.17 312.054 1807.79 324.069C1821.79 336.085 1838.71 342.093 1858.56 342.093C1870.23 342.093 1880.34 340.736 1888.91 338.023C1897.46 335.31 1905.05 332.403 1911.66 329.302C1919.45 334.728 1925.27 340.736 1929.17 347.325C1933.06 353.527 1935 361.085 1935 370C1935 385.891 1927.41 398.294 1912.25 407.209C1897.07 415.736 1876.06 420 1849.22 420C1824.71 420 1802.54 416.511 1782.7 409.534C1762.86 402.17 1745.74 392.092 1731.34 379.302C1717.34 366.124 1706.45 350.426 1698.67 332.209C1690.89 313.992 1687 293.837 1687 271.744C1687 246.163 1691.08 223.876 1699.26 204.884C1707.81 185.504 1719.29 169.613 1733.68 157.21C1748.08 144.806 1764.61 135.504 1783.29 129.302C1802.35 123.101 1822.38 120 1843.38 120C1871.39 120 1892.99 125.04 1908.16 135.117C1923.33 145.194 1930.92 158.179 1930.92 174.07C1930.92 181.435 1929.17 188.411 1925.66 195.001C1922.16 201.201 1918.08 206.628 1913.41 211.279C1906.8 208.178 1898.82 205.272 1889.49 202.559C1880.15 199.457 1870.03 197.907 1859.14 197.907Z" fill="#2FDB4A"/>
<path d="M1530 52.5731C1530 37.7747 1534.88 25.3129 1544.65 15.1878C1554.81 5.06259 1568.09 0 1584.5 0C1600.9 0 1613.99 5.06259 1623.76 15.1878C1633.92 25.3129 1639 37.7747 1639 52.5731C1639 67.3714 1633.92 79.8332 1623.76 89.9583C1613.99 100.084 1600.9 105.146 1584.5 105.146C1568.09 105.146 1554.81 100.084 1544.65 89.9583C1534.88 79.8332 1530 67.3714 1530 52.5731ZM1634.31 414.743C1630.02 415.522 1623.57 416.496 1614.97 417.663C1606.77 419.221 1598.36 420 1589.77 420C1581.18 420 1573.37 419.417 1566.33 418.248C1559.69 417.08 1554.02 414.743 1549.33 411.238C1544.65 407.733 1540.94 403.06 1538.2 397.219C1535.86 390.988 1534.69 383.004 1534.69 373.269V135.522C1538.98 134.743 1545.24 133.769 1553.44 132.601C1562.03 131.044 1570.63 130.264 1579.23 130.264C1587.82 130.264 1595.44 130.849 1602.08 132.016C1609.11 133.185 1614.97 135.522 1619.66 139.027C1624.34 142.531 1627.87 147.4 1630.21 153.63C1632.95 159.472 1634.31 167.26 1634.31 176.996V414.743Z" fill="#2FDB4A"/>
<path d="M845 30.8346C848.894 29.6676 855.125 28.5007 863.693 27.3338C872.261 25.778 881.023 25 889.981 25C898.548 25 906.142 25.5835 912.763 26.7504C919.773 27.9173 925.615 30.2511 930.288 33.7518C934.961 37.2527 938.466 42.1148 940.803 48.3383C943.139 54.1728 944.308 61.9523 944.308 71.6766V128.855C954.044 124.965 963.196 122.243 971.763 120.687C980.721 119.131 990.457 118.353 1000.97 118.353C1019.67 118.353 1037.39 121.659 1054.13 128.272C1070.88 134.884 1085.67 144.608 1098.53 157.445C1111.38 169.891 1121.51 185.451 1128.9 204.121C1136.31 222.792 1140 244.38 1140 268.885C1140 294.168 1136.11 316.34 1128.32 335.399C1120.92 354.07 1110.41 369.629 1096.78 382.075C1083.14 394.523 1066.4 404.052 1046.53 410.665C1027.06 416.889 1005.46 420 981.694 420C955.991 420 934.183 416.889 916.268 410.665C898.354 404.831 883.165 397.441 870.703 388.494C853.567 376.435 845 360.877 845 341.817V30.8346ZM981.694 341.817C999.611 341.817 1013.43 335.788 1023.17 323.73C1033.29 311.282 1038.36 293.002 1038.36 268.885C1038.36 244.38 1033.29 226.098 1023.17 214.04C1013.04 201.982 999.411 195.953 982.279 195.953C974.49 195.953 967.674 196.731 961.833 198.287C956.381 199.842 950.344 202.176 943.724 205.288V332.482C948.008 335.204 953.07 337.538 958.912 339.483C965.144 341.039 972.737 341.817 981.694 341.817Z" fill="#2FDB4A"/>
<path d="M1188 30.8346C1191.88 29.6676 1198.09 28.5007 1206.63 27.3338C1215.17 25.778 1223.9 25 1232.83 25C1241.37 25 1248.93 25.5835 1255.53 26.7504C1262.52 27.9173 1268.34 30.2511 1273 33.7518C1277.66 37.2527 1281.15 42.1148 1283.48 48.3383C1285.81 54.1728 1286.97 61.9523 1286.97 71.6766V128.855C1296.67 124.965 1305.8 122.243 1314.33 120.687C1323.26 119.131 1332.96 118.353 1343.44 118.353C1362.07 118.353 1379.74 121.659 1396.42 128.272C1413.12 134.884 1427.86 144.608 1440.67 157.445C1453.48 169.891 1463.57 185.451 1470.94 204.121C1478.32 222.792 1482 244.38 1482 268.885C1482 294.168 1478.12 316.34 1470.36 335.399C1462.98 354.07 1452.51 369.629 1438.93 382.075C1425.33 394.523 1408.65 404.052 1388.85 410.665C1369.44 416.889 1347.91 420 1324.23 420C1298.61 420 1276.88 416.889 1259.03 410.665C1241.17 404.831 1226.04 397.441 1213.62 388.494C1196.54 376.435 1188 360.877 1188 341.817V30.8346ZM1324.23 341.817C1342.09 341.817 1355.86 335.788 1365.56 323.73C1375.66 311.282 1380.7 293.002 1380.7 268.885C1380.7 244.38 1375.66 226.098 1365.56 214.04C1355.47 201.982 1341.89 195.953 1324.81 195.953C1317.05 195.953 1310.26 196.731 1304.44 198.287C1299 199.842 1292.99 202.176 1286.39 205.288V332.482C1290.66 335.204 1295.7 337.538 1301.53 339.483C1307.74 341.039 1315.3 341.817 1324.23 341.817Z" fill="#2FDB4A"/>
<path d="M674.356 420C651.385 420 629.971 416.906 610.114 410.716C590.647 404.139 573.516 394.468 558.721 381.703C544.316 368.937 532.829 352.882 524.264 333.54C516.088 314.198 512 291.567 512 265.649C512 240.117 516.088 218.259 524.264 200.077C532.829 181.509 543.925 166.422 557.552 154.817C571.18 142.824 586.754 134.12 604.274 128.705C621.794 122.902 639.704 120 658.004 120C678.639 120 697.327 123.095 714.07 129.284C731.2 135.474 745.801 143.985 757.87 154.817C770.33 165.648 779.868 178.608 786.487 193.695C793.495 208.782 797 225.223 797 243.017C797 256.171 793.301 266.228 785.903 273.192C778.506 280.156 768.188 284.604 754.95 286.538L610.698 308.008C614.981 320.774 623.741 330.446 636.979 337.022C650.217 343.211 665.401 346.306 682.533 346.306C698.496 346.306 713.486 344.372 727.502 340.503C741.907 336.248 753.587 331.413 762.543 325.996C768.772 329.865 774.029 335.281 778.312 342.244C782.594 349.207 784.735 356.558 784.735 364.294C784.735 381.703 776.559 394.662 760.206 403.172C747.748 409.749 733.732 414.198 718.158 416.519C702.584 418.84 687.983 420 674.356 420ZM658.004 191.954C648.659 191.954 640.484 193.502 633.475 196.596C626.857 199.691 621.405 203.753 617.122 208.782C612.839 213.424 609.531 218.84 607.194 225.029C605.248 230.832 604.079 236.829 603.69 243.017L703.557 226.77C702.389 219.033 698.107 211.296 690.708 203.559C683.311 195.823 672.409 191.954 658.004 191.954Z" fill="#2FDB4A"/>
<path d="M364.207 251.126C345.243 231.892 315.346 160.143 314.447 143.143C313.358 120.928 319.851 102.537 348.809 89.1603C365.29 81.4957 373.366 72.0191 382.126 61.7389C383.27 60.3962 384.426 59.0397 385.613 57.6718C396.251 45.7355 402.426 79.8896 404.908 109.162C407.685 141.24 404.81 183.272 397.88 210.951C392.847 231.053 379.151 261.842 375.497 261.161C374.703 261.014 369.676 256.516 364.207 251.126Z" fill="#2FDB4A"/>
<path d="M135.793 251.126C154.757 231.892 184.654 160.143 185.552 143.143C186.642 120.928 180.149 102.537 151.19 89.1603C134.71 81.4957 126.634 72.0191 117.874 61.7389C116.73 60.3962 115.574 59.0397 114.387 57.6718C103.748 45.7355 97.5738 79.8896 95.0917 109.162C92.3145 141.24 95.1888 183.272 102.119 210.951C107.153 231.053 120.848 261.842 124.502 261.161C125.297 261.014 130.324 256.516 135.793 251.126Z" fill="#2FDB4A"/>
<path d="M420.116 389.513C419.338 391.883 417.977 394.763 416.034 398.151C414.091 401.538 408.842 406.111 400.291 411.87C392.127 417.291 382.215 420 370.553 420C359.279 420 349.366 417.291 340.815 411.87C332.651 406.111 327.209 400.522 324.488 395.102L256.266 219.797H243.734L175.512 395.102C172.79 400.522 167.348 406.111 159.185 411.87C150.633 417.291 140.721 420 129.447 420C117.785 420 107.872 417.291 99.7093 411.87C91.1573 406.111 85.9093 401.538 83.9657 398.151C82.022 394.763 80.6615 391.883 79.884 389.513C53.256 309.055 0 128.526 0 50.0814C10.4958 46.6938 19.6309 45 27.4054 45L76.5175 45.7017C65.6359 137.012 69.1491 282.371 118.787 304.599C147.963 313.298 173.055 240.675 205.411 147.025C216.255 115.638 227.915 81.8897 240.818 48.0488H259.181C272.084 81.8872 283.743 115.633 294.586 147.018L294.588 147.023L294.589 147.025C326.945 240.675 352.036 313.298 381.212 304.599C430.851 282.371 434.364 137.012 423.482 45.7017L472.594 45C480.369 45 489.504 46.6938 500 50.0814C500 128.526 446.744 309.055 420.116 389.513Z" fill="#2FDB4A"/>
</g>
<defs>
<clipPath id="clip0_0_1">
<rect width="2616" height="420" fill="white"/>
</clipPath>
</defs>
</svg>
